<svg xmlns="http://www.w3.org/2000/svg" viewBox="0 0 150 150">
  <path fill="#2379c9" d="M150 19.9v108.7c-15.6-5.7-37.9-13.9-66.8-24.6 -1.2-0.6-2-1.5-2.3-2.6 -1-1-0.7-2.2 0.9-3.8 0.4-0.4 0.8-0.6 1.2-0.6 0.2 0 0.5 0.1 0.9 0.1 0.4 0.1 0.8 0.1 1.2 0.1 4.5 1.8 11.5 4.3 20.9 7.8 9.5 3.4 17.6 6.4 24.5 8.9l10.3 3.8 1.8 0.6V33.7L0 130.1V21.4c2.3 0.8 9.1 3.3 20.2 7.5 11.1 4.2 21.4 8 30.9 11.4 9.5 3.4 14.6 5.3 15.4 5.7 1.8 0.6 2.6 1.8 2.6 3.5 0 1.4-0.3 2.3-0.9 2.9 -0.8 0.8-2 0.9-3.5 0.3C57.7 50 39 43.2 8.5 32.2L7 31.6v84.7L150 19.9z">

  </path>
</svg>
